<svg xmlns="http://www.w3.org/2000/svg" xmlns:xlink="http://www.w3.org/1999/xlink" id="Layer_1" width="100" height="100" x="0" y="0" enable-background="new 0 0 100 100" version="1.1" viewBox="0 0 100 100" xml:space="preserve"><path d="M29.48,70.151c0.014,4.624-1.582,8.378-3.563,8.384l0,0c-1.982,0.006-3.6-3.738-3.614-8.362l-0.13-42.707	c-0.014-4.623,1.581-8.375,3.563-8.382l0,0c1.981-0.006,3.6,3.737,3.614,8.361L29.48,70.151L29.48,70.151z"/><path fill="none" stroke="#000" stroke-width="7" d="M78.576,28.368l-0.001,41.177c0,2.762-2.616,5.002-5.846,5.002	c-1.003,0-1.639-0.223-2.757-0.604L28.963,53.52c-1.905-0.967-2.789-2.521-3.13-4.312v-0.503c0.342-1.792,1.225-3.346,3.13-4.314	l41.009-20.421c1.118-0.382,1.754-0.606,2.757-0.606C75.959,23.363,78.576,25.604,78.576,28.368L78.576,28.368z"/></svg>