<svg xmlns="http://www.w3.org/2000/svg" xmlns:xlink="http://www.w3.org/1999/xlink" id="Layer_1" width="100" height="100" x="0" y="0" enable-background="new 0 0 100 100" version="1.1" viewBox="0 0 100 100" xml:space="preserve"><g><path d="M93,50.944c0,23.656-19.175,42.833-42.832,42.833c-23.658,0-42.834-19.177-42.834-42.833S26.51,8.111,50.168,8.111 C73.825,8.111,93,27.288,93,50.944z M50.168,16.678C31.243,16.678,15.9,32.02,15.9,50.944s15.342,34.268,34.268,34.268 c18.924,0,34.267-15.343,34.267-34.268S69.092,16.678,50.168,16.678z"/><rect width="9.518" height="80.907" x="45.408" y="10.491" transform="matrix(-0.866 0.5 -0.5 -0.866 119.0846 69.9791)"/></g></svg>